<svg width="800" height="800" xmlns="http://www.w3.org/2000/svg">
  <rect width="100%" height="100%" fill="#d2a679"/>
  
  <!-- Wood grain pattern -->
  <path d="M0 200 Q100 250 200 200 T400 200 T600 200 T800 200" stroke="#a97c50" stroke-width="5" fill="none"/>
  <path d="M0 400 Q150 350 300 400 T600 400 T800 400" stroke="#a97c50" stroke-width="5" fill="none"/>
  <path d="M0 600 Q200 650 400 600 T800 600" stroke="#a97c50" stroke-width="5" fill="none"/>
  <path d="M0 800 Q300 750 600 800 T800 800" stroke="#a97c50" stroke-width="5" fill="none"/>
  
  <!-- Inner grains -->
  <path d="M50 250 Q150 300 250 250 T450 250 T650 250 T850 250" stroke="#b5845a" stroke-width="3" fill="none"/>
  <path d="M100 450 Q200 400 300 450 T500 450 T700 450 T900 450" stroke="#b5845a" stroke-width="3" fill="none"/>
  <path d="M150 650 Q250 700 350 650 T550 650 T750 650 T950 650" stroke="#b5845a" stroke-width="3" fill="none"/>
  
</svg>
